# xmcd
#
# Track frame offsets:
#	150
#	23777
#	49180
#	96427
#	127540
#	147262
#	164045
#	182987
#	206920
#	229440
#	253775
#	282742
#	304797
#	327365
#
# Disc length: 4675 seconds
#
# Revision: 0
# Processed by: cddbd v1.5.2PL0 Copyright (c) Steve Scherf et al.
# Submitted via: EZCDAudioConverter 3.1.7.1
#
DISCID=db12410e
DTITLE=Stevie Wonder - At the Close of the Century - CD4
DYEAR=1999
DGENRE=R&B
TTITLE0=That Girl
TTITLE1=Ribbon In The Sky
TTITLE2=Do I Do
TTITLE3=Love Light In Flight
TTITLE4=I Just Called To Say I Love You
TTITLE5=Overjoyed
TTITLE6=Part-Time Lover
TTITLE7=Go Home
TTITLE8=You Will Know
TTITLE9=Skeletons
TTITLE10=Gotta Have You
TTITLE11=These Three Words
TTITLE12=For Your Love
TTITLE13=How Come, How Long (Babyface featuring Stevie Wonder)
EXTD=
EXTT0=
EXTT1=
EXTT2=
EXTT3=
EXTT4=
EXTT5=
EXTT6=
EXTT7=
EXTT8=
EXTT9=
EXTT10=
EXTT11=
EXTT12=
EXTT13=
PLAYORDER=
